<svg width="43" height="43" viewBox="0 0 43 43" fill="none" xmlns="http://www.w3.org/2000/svg">
<path d="M21.5 9.40625C20.5698 9.40625 19.6605 9.13042 18.8871 8.61363C18.1137 8.09685 17.5108 7.36232 17.1549 6.50294C16.7989 5.64355 16.7058 4.69791 16.8872 3.78559C17.0687 2.87328 17.5166 2.03526 18.1744 1.37752C18.8321 0.719772 19.6702 0.271842 20.5825 0.0903713C21.4948 -0.0910998 22.4404 0.00203783 23.2998 0.358006C24.1592 0.713975 24.8937 1.31679 25.4105 2.09021C25.9273 2.86364 26.2031 3.77294 26.2031 4.70313C26.2018 5.95006 25.7059 7.14555 24.8241 8.02727C23.9424 8.90898 22.7469 9.40492 21.5 9.40625Z" fill="white"/>
<path d="M36.2804 9.47332L36.2426 9.4834L36.2073 9.49432C36.1234 9.51783 36.0394 9.54303 35.9554 9.56906C34.3924 10.0276 26.807 12.1659 21.463 12.1659C16.4971 12.1659 9.59773 10.3182 7.39063 9.69084C7.17097 9.6059 6.94664 9.53356 6.71875 9.47416C5.12305 9.05424 4.03125 10.6751 4.03125 12.1566C4.03125 13.6238 5.3498 14.3226 6.68096 14.824V14.8475L14.6779 17.3452C15.4951 17.6584 15.7135 17.9784 15.8201 18.2556C16.167 19.145 15.8898 20.9061 15.7916 21.5209L15.3045 25.3002L12.601 40.0974C12.5926 40.1377 12.5851 40.1788 12.5783 40.2208L12.559 40.3275C12.3642 41.6838 13.3602 42.9999 15.2465 42.9999C16.8926 42.9999 17.6191 41.8636 17.934 40.3174C18.249 38.7713 20.2856 27.084 21.4614 27.084C22.6371 27.084 25.0593 40.3174 25.0593 40.3174C25.3742 41.8636 26.1007 42.9999 27.7468 42.9999C29.6381 42.9999 30.6341 41.678 30.4343 40.3174C30.4166 40.2015 30.3956 40.0873 30.3704 39.9764L27.63 25.3019L27.1437 21.5226C26.7919 19.3213 27.0749 18.594 27.1706 18.4235C27.1732 18.4195 27.1754 18.4153 27.1773 18.4109C27.268 18.243 27.6812 17.8667 28.6454 17.5047L36.1435 14.8836C36.1896 14.8713 36.235 14.8568 36.2796 14.8399C37.6233 14.336 38.9671 13.6389 38.9671 12.1583C38.9671 10.6777 37.8761 9.05424 36.2804 9.47332Z" fill="white"/>
</svg>
