<svg width="38" height="38" viewBox="0 0 38 38" fill="none" xmlns="http://www.w3.org/2000/svg">
<path d="M36.6067 15.6904L30.4792 9.4996C30.332 9.35119 30.1569 9.2334 29.9639 9.15302C29.771 9.07264 29.564 9.03125 29.355 9.03125C29.146 9.03125 28.939 9.07264 28.7461 9.15302C28.5531 9.2334 28.378 9.35119 28.2308 9.4996V9.4996C27.9359 9.79625 27.7704 10.1976 27.7704 10.6158C27.7704 11.0341 27.9359 11.4354 28.2308 11.7321L33.8675 17.4163H1.58333C1.16341 17.4163 0.76068 17.5831 0.463748 17.88C0.166815 18.1769 0 18.5797 0 18.9996H0C0 19.4195 0.166815 19.8222 0.463748 20.1192C0.76068 20.4161 1.16341 20.5829 1.58333 20.5829H33.9625L28.2308 26.2988C28.0824 26.446 27.9646 26.6211 27.8843 26.814C27.8039 27.007 27.7625 27.2139 27.7625 27.4229C27.7625 27.6319 27.8039 27.8389 27.8843 28.0318C27.9646 28.2248 28.0824 28.3999 28.2308 28.5471C28.378 28.6955 28.5531 28.8133 28.7461 28.8937C28.939 28.9741 29.146 29.0154 29.355 29.0154C29.564 29.0154 29.771 28.9741 29.9639 28.8937C30.1569 28.8133 30.332 28.6955 30.4792 28.5471L36.6067 22.4038C37.4962 21.5131 37.9958 20.3059 37.9958 19.0471C37.9958 17.7883 37.4962 16.5811 36.6067 15.6904V15.6904Z" fill="#000000"/>
</svg>
