<svg width="1520" height="341" viewBox="0 0 1520 341" fill="none" xmlns="http://www.w3.org/2000/svg">
<g clip-path="url(#clip0_4025_760)">
<path d="M105.203 340.871C84.6698 340.871 66.4698 338.357 50.6031 333.329C34.7364 328.005 22.3698 320.462 13.5031 310.701C4.63646 300.644 0.203125 288.517 0.203125 274.319C0.203125 261.009 4.16979 250.065 12.1031 241.487C20.5031 232.613 32.4031 225.662 47.8031 220.634C63.6698 215.31 82.5698 211.021 104.503 207.767C126.436 204.218 151.403 201.112 179.403 198.45C192.936 196.971 204.136 195.64 213.003 194.457C222.336 192.978 229.336 190.76 234.003 187.802C238.67 184.844 241.003 180.555 241.003 174.935C241.003 167.54 236.803 161.181 228.403 155.857C220.003 150.533 206.47 147.871 187.803 147.871C174.736 147.871 162.836 149.349 152.103 152.307C141.836 155.265 132.97 159.554 125.503 165.174C118.036 170.794 112.436 177.597 108.703 185.583L-6 215.31C0.0667 202.887 9.03275 155.413 34.5031 134.56C45.7031 125.391 59.0031 117.848 74.4031 111.932C89.8031 105.721 107.303 101.284 126.903 98.622C146.97 95.664 168.203 94.1852 190.603 94.1852C227.936 94.1852 258.27 98.0307 281.603 105.721C305.403 113.116 322.903 124.799 334.103 140.772C345.77 156.448 351.603 176.71 351.603 201.556V237.494C351.603 248.142 351.836 258.938 352.303 269.883C353.236 280.531 354.17 291.327 355.103 302.271C356.503 312.92 358.136 323.716 360.003 334.66H260.603C258.736 327.857 256.87 319.723 255.003 310.258C253.136 300.497 251.736 290.588 250.803 280.531H237.503C230.97 291.771 221.403 302.124 208.803 311.589C196.67 320.758 181.736 328.005 164.003 333.329C146.736 338.357 127.136 340.871 105.203 340.871ZM156.303 290.292C164.703 290.292 173.103 289.405 181.503 287.63C190.37 285.559 198.77 282.897 206.703 279.644C214.636 276.094 221.87 271.805 228.403 266.777C234.936 261.749 239.836 256.276 243.103 250.361L241.703 215.31L257.103 217.528C248.236 221.078 238.436 223.888 227.703 225.958C216.97 228.029 206.003 229.655 194.803 230.839C184.07 232.022 173.336 233.353 162.603 234.832C152.336 236.015 143.003 237.642 134.603 239.712C126.67 241.783 120.37 244.593 115.703 248.142C111.036 251.692 108.703 256.572 108.703 262.784C108.703 271.066 113.136 277.721 122.003 282.749C130.87 287.778 142.303 290.292 156.303 290.292ZM371.712 334.66V225.958V100.397H464.112L466.212 179.816H480.212C483.478 159.11 489.545 142.694 498.412 130.567C507.745 118.144 520.812 109.123 537.612 103.503C554.878 97.8823 576.112 95.0726 601.312 95.0726C605.045 95.0726 609.245 95.2203 613.912 95.5163C618.578 95.5163 623.945 95.8123 630.012 96.4036L625.812 172.717C618.345 170.351 610.178 168.871 601.312 168.28C592.912 167.392 585.445 166.949 578.912 166.949C560.712 166.949 544.845 169.167 531.312 173.604C518.245 178.041 507.745 184.844 499.812 194.013C492.345 203.183 487.445 214.719 485.112 228.62V334.66H371.712ZM818.251 340.428C774.851 340.428 742.885 333.181 722.351 318.687C701.818 303.898 691.551 280.383 691.551 248.142V156.3H639.051L641.151 100.84H678.951C693.885 100.544 705.085 99.0657 712.551 96.4036C720.485 93.7416 725.385 88.7134 727.251 81.3185L736.351 48.4862H800.051V100.397H888.951V158.519H800.051V245.037C800.051 255.094 803.785 262.488 811.251 267.221C819.185 271.953 831.085 274.319 846.951 274.319C855.818 274.319 864.218 273.728 872.151 272.545C880.085 271.361 886.618 269.735 891.751 267.664V333.773C876.818 336.731 863.051 338.505 850.451 339.097C838.318 339.984 827.585 340.428 818.251 340.428ZM909.426 334.66V100.397H1022.12V334.66H909.426ZM966.126 67.5644C944.66 67.5644 928.093 64.7546 916.426 59.1345C905.226 53.2187 899.626 44.9367 899.626 34.2884C899.626 23.0484 905.226 14.6185 916.426 8.99861C928.093 3.08287 944.66 0.125 966.126 0.125C988.06 0.125 1004.62 3.08287 1015.82 8.99861C1027.49 14.6185 1033.32 22.9006 1033.32 33.8447C1033.32 44.7888 1027.49 53.2187 1015.82 59.1345C1004.62 64.7546 988.06 67.5644 966.126 67.5644ZM1229.42 340.871C1198.62 340.871 1171.08 338.357 1146.82 333.329C1122.55 328.005 1101.78 320.315 1084.52 310.258C1067.72 300.201 1054.88 287.778 1046.02 272.988C1037.15 258.199 1032.72 241.191 1032.72 221.965C1032.72 203.331 1036.92 186.175 1045.32 170.498C1054.18 154.822 1066.55 141.363 1082.42 130.123C1098.75 118.588 1118.58 109.714 1141.92 103.503C1165.72 97.291 1192.32 94.1852 1221.72 94.1852C1251.58 94.1852 1277.72 97.291 1300.12 103.503C1322.98 109.418 1341.65 118.292 1356.12 130.123C1371.05 141.955 1382.02 156.448 1389.02 173.604C1396.02 190.464 1398.35 209.838 1396.02 231.726L1106.92 233.057V195.788L1331.62 194.457L1291.72 211.761C1294.98 196.971 1293.58 184.992 1287.52 175.822C1281.45 166.357 1272.58 159.554 1260.92 155.413C1249.25 150.976 1236.65 148.758 1223.12 148.758C1206.78 148.758 1192.32 151.568 1179.72 157.188C1167.58 162.808 1158.02 170.942 1151.02 181.59C1144.02 192.239 1140.52 205.253 1140.52 220.634C1140.52 244.889 1148.68 262.488 1165.02 273.432C1181.82 284.376 1203.05 289.848 1228.72 289.848C1241.32 289.848 1251.82 288.813 1260.22 286.742C1268.62 284.376 1275.38 281.566 1280.52 278.313C1286.12 274.763 1290.32 270.918 1293.12 266.777C1296.38 262.636 1298.95 258.643 1300.82 254.798L1393.34 251.839C1389.6 262.784 1389.02 288.961 1380.62 297.835C1372.68 306.708 1361.72 314.398 1347.72 320.906C1334.18 327.413 1317.62 332.294 1298.02 335.547C1278.88 339.097 1256.02 340.871 1229.42 340.871ZM1408.56 334.66V15.2101H1519.16V334.66H1408.56Z" fill="#ffffff"/>
</g>
<defs>
<clipPath id="clip0_4025_760">
<rect width="1520" height="341" fill="white"/>
</clipPath>
</defs>
</svg>
