<svg width="83" height="42" viewBox="0 0 83 42" fill="none" xmlns="http://www.w3.org/2000/svg">
<g filter="url(#filter0_n_4228_113)">
<path d="M6.825 33.455C5.82167 33.455 4.92333 33.2683 4.13 32.895C3.33667 32.4983 2.70667 31.915 2.24 31.145C1.79667 30.375 1.575 29.4183 1.575 28.275C1.575 27.365 1.73833 26.5833 2.065 25.93C2.415 25.2533 2.92833 24.6933 3.605 24.25C4.305 23.7833 5.19167 23.41 6.265 23.13C7.33833 22.8267 8.61 22.57 10.08 22.36C10.8967 22.2433 11.5617 22.1267 12.075 22.01C12.6117 21.8933 12.9967 21.7067 13.23 21.45C13.4867 21.1933 13.615 20.8083 13.615 20.295C13.615 19.5017 13.335 18.825 12.775 18.265C12.2383 17.6817 11.3633 17.39 10.15 17.39C9.47333 17.39 8.79667 17.5067 8.12 17.74C7.46667 17.9733 6.895 18.3583 6.405 18.895C5.93833 19.4083 5.62333 20.1083 5.46 20.995L2.03 19.91C2.24 19.0233 2.57833 18.2417 3.045 17.565C3.51167 16.865 4.095 16.2817 4.795 15.815C5.495 15.325 6.3 14.9633 7.21 14.73C8.14333 14.4733 9.15833 14.345 10.255 14.345C11.865 14.345 13.195 14.6133 14.245 15.15C15.295 15.6867 16.0767 16.515 16.59 17.635C17.1267 18.7317 17.395 20.1433 17.395 21.87V25.58C17.395 26.35 17.4067 27.1667 17.43 28.03C17.4767 28.87 17.5233 29.7217 17.57 30.585C17.64 31.425 17.7217 32.23 17.815 33H14.35C14.28 32.3 14.21 31.5767 14.14 30.83C14.0933 30.0833 14.0467 29.325 14 28.555H13.475C13.1483 29.4417 12.6817 30.2583 12.075 31.005C11.4917 31.7517 10.7567 32.3467 9.87 32.79C9.00667 33.2333 7.99167 33.455 6.825 33.455ZM8.155 30.515C8.645 30.515 9.135 30.4333 9.625 30.27C10.1383 30.1067 10.64 29.8617 11.13 29.535C11.6433 29.185 12.11 28.7417 12.53 28.205C12.9733 27.6683 13.3583 27.0267 13.685 26.28L13.65 22.99L14.56 23.165C14.1633 23.515 13.6617 23.7833 13.055 23.97C12.4717 24.1567 11.83 24.3083 11.13 24.425C10.43 24.5183 9.73 24.635 9.03 24.775C8.35333 24.8917 7.72333 25.0667 7.14 25.3C6.58 25.51 6.125 25.8133 5.775 26.21C5.44833 26.6067 5.285 27.155 5.285 27.855C5.285 28.7183 5.55333 29.3833 6.09 29.85C6.62667 30.2933 7.315 30.515 8.155 30.515ZM19.3334 33V23.515V14.8H22.6234L22.4484 21.1H23.0434C23.2534 19.6767 23.5801 18.4633 24.0234 17.46C24.4667 16.4567 25.0734 15.6983 25.8434 15.185C26.6134 14.6483 27.5701 14.38 28.7134 14.38C28.9467 14.38 29.2034 14.3917 29.4834 14.415C29.7634 14.4383 30.0784 14.5083 30.4284 14.625L30.2534 18.615C29.9034 18.475 29.5417 18.3817 29.1684 18.335C28.7951 18.265 28.4567 18.23 28.1534 18.23C27.2201 18.23 26.4267 18.4983 25.7734 19.035C25.1201 19.5483 24.5717 20.2717 24.1284 21.205C23.7084 22.115 23.3817 23.1767 23.1484 24.39V33H19.3334ZM39.5817 33.385C37.7851 33.385 36.4434 32.895 35.5567 31.915C34.6934 30.935 34.2617 29.43 34.2617 27.4V17.915H31.5667L31.6367 14.8H33.3867C33.9934 14.8 34.4484 14.7067 34.7517 14.52C35.0551 14.31 35.2417 13.9483 35.3117 13.435L35.6617 10.74H37.9367V14.8H42.9417V17.985H37.9367V27.295C37.9367 28.205 38.1467 28.8583 38.5667 29.255C38.9867 29.6517 39.6051 29.85 40.4217 29.85C40.8651 29.85 41.3084 29.8033 41.7517 29.71C42.2184 29.5933 42.6617 29.3833 43.0817 29.08V32.755C42.3817 32.9883 41.7401 33.1517 41.1567 33.245C40.5734 33.3383 40.0484 33.385 39.5817 33.385ZM44.4076 33V14.8H48.1876V33H44.4076ZM46.2976 11.755C45.4809 11.755 44.8626 11.5917 44.4426 11.265C44.0226 10.915 43.8126 10.4017 43.8126 9.725C43.8126 9.07167 44.0226 8.57 44.4426 8.22C44.8626 7.87 45.4809 7.695 46.2976 7.695C47.1376 7.695 47.7676 7.87 48.1876 8.22C48.6076 8.57 48.8176 9.07167 48.8176 9.725C48.8176 10.4017 48.6076 10.915 48.1876 11.265C47.7676 11.5917 47.1376 11.755 46.2976 11.755ZM58.6802 33.455C57.2336 33.455 55.9502 33.245 54.8302 32.825C53.7102 32.3817 52.7652 31.7633 51.9952 30.97C51.2252 30.1533 50.6419 29.185 50.2452 28.065C49.8486 26.9217 49.6502 25.6383 49.6502 24.215C49.6502 22.7917 49.8486 21.485 50.2452 20.295C50.6419 19.0817 51.2019 18.0317 51.9252 17.145C52.6719 16.2583 53.5819 15.57 54.6552 15.08C55.7519 14.59 56.9886 14.345 58.3652 14.345C59.6486 14.345 60.7919 14.555 61.7952 14.975C62.8219 15.395 63.6852 16.0367 64.3852 16.9C65.0852 17.74 65.6102 18.8017 65.9602 20.085C66.3102 21.345 66.4386 22.8267 66.3452 24.53L52.1002 24.635V22.255L64.1052 22.15L62.7752 23.62C62.9152 22.22 62.7986 21.065 62.4252 20.155C62.0519 19.245 61.5152 18.5683 60.8152 18.125C60.1152 17.6817 59.3102 17.46 58.4002 17.46C57.3736 17.46 56.4752 17.7283 55.7052 18.265C54.9586 18.7783 54.3752 19.5367 53.9552 20.54C53.5352 21.5433 53.3252 22.745 53.3252 24.145C53.3252 26.245 53.7919 27.8317 54.7252 28.905C55.6586 29.955 56.9886 30.48 58.7152 30.48C59.4386 30.48 60.0569 30.3983 60.5702 30.235C61.0836 30.0483 61.5152 29.815 61.8652 29.535C62.2152 29.2317 62.4952 28.8817 62.7052 28.485C62.9386 28.065 63.1252 27.6333 63.2652 27.19L66.5902 27.96C66.3802 28.8233 66.0536 29.5933 65.6102 30.27C65.1902 30.9233 64.6536 31.495 64.0002 31.985C63.3469 32.4517 62.5769 32.8133 61.6902 33.07C60.8269 33.3267 59.8236 33.455 58.6802 33.455ZM67.8262 33V8.325H71.5712V33H67.8262Z" fill="#ffffff"/>
</g>
<path d="M74.976 8.716H78.366V9.064H76.872V13H76.464V9.064H74.976V8.716ZM79.054 8.716L80.476 12.472L81.952 8.716H82.552V13H82.144V9.298H82.132L80.668 13H80.284L78.874 9.298H78.862V13H78.454V8.716H79.054Z" fill="#F3F3F1"/>
<defs>
<filter id="filter0_n_4228_113" x="1.57812" y="7.69531" width="69.9922" height="25.7578" filterUnits="userSpaceOnUse" color-interpolation-filters="sRGB">
<feFlood flood-opacity="0" result="BackgroundImageFix"/>
<feBlend mode="normal" in="SourceGraphic" in2="BackgroundImageFix" result="shape"/>
<feTurbulence type="fractalNoise" baseFrequency="2 2" stitchTiles="stitch" numOctaves="3" result="noise" seed="555" />
<feColorMatrix in="noise" type="luminanceToAlpha" result="alphaNoise" />
<feComponentTransfer in="alphaNoise" result="coloredNoise1">
<feFuncA type="discrete" tableValues="1 1 1 1 1 1 1 1 1 1 1 1 1 1 1 1 1 1 1 1 1 1 1 1 1 1 1 1 1 1 1 1 1 1 1 1 1 1 1 1 1 1 1 1 1 1 1 1 1 1 1 0 0 0 0 0 0 0 0 0 0 0 0 0 0 0 0 0 0 0 0 0 0 0 0 0 0 0 0 0 0 0 0 0 0 0 0 0 0 0 0 0 0 0 0 0 0 0 0 0 "/>
</feComponentTransfer>
<feComposite operator="in" in2="shape" in="coloredNoise1" result="noise1Clipped" />
<feFlood flood-color="rgba(224, 224, 224, 0.53)" result="color1Flood" />
<feComposite operator="in" in2="noise1Clipped" in="color1Flood" result="color1" />
<feMerge result="effect1_noise_4228_113">
<feMergeNode in="shape" />
<feMergeNode in="color1" />
</feMerge>
</filter>
</defs>
</svg>
