<svg width="52" height="53" viewBox="0 0 52 53" fill="none" xmlns="http://www.w3.org/2000/svg">
<path d="M0 31.3637C0 30.8676 0.363697 30.4465 0.854506 30.3743L12.7348 28.6272C15.4572 28.2269 17.8943 26.7225 19.4722 24.4683L28.0142 12.2654C29.8855 9.59211 32.9434 8 36.2066 8H49C49.5523 8 50 8.44772 50 9V27C50 27.5523 49.5523 28 49 28H36.6199C33.13 28 29.8925 29.8194 28.0779 32.8005L19.9221 46.1995C18.1075 49.1806 14.87 51 11.3801 51H1C0.447715 51 0 50.5523 0 50V31.3637Z" fill="white"/>
<path d="M35.0502 1C35.7837 1 36.2676 1.76347 35.9545 2.42681L32.3192 10.1294C30.1896 14.6417 31.712 20.0333 35.8872 22.7653L45.4754 29.0394C48.2987 30.8867 50 34.0332 50 37.4071V50C50 50.5523 49.5523 51 49 51H29.6047C29.0524 51 28.6047 50.5523 28.6047 50V37.8155C28.6047 34.2204 26.6748 30.9019 23.5501 29.124L14.4892 23.9683C9.04163 20.8687 7.75555 13.5792 11.8135 8.80247L18.1423 1.35256C18.3323 1.12891 18.611 1 18.9045 1H35.0502Z" fill="white"/>
<path d="M35.4814 52.4253C34.2249 52.5415 31.8022 52.494 30.4695 52.468C30.4451 52.4676 30.4206 52.4671 30.3962 52.4667C30.1336 52.4616 29.8828 52.4596 29.6047 52.4581C29.4664 52.4578 29.324 52.4459 29.1796 52.4203C28.2907 52.2782 27.1792 51.472 27.1602 50C27.1707 49.2916 27.1907 48.3678 27.2313 47.0742C27.2286 46.3884 27.2271 45.7025 27.2271 45.0167C27.2271 42.6163 27.2373 40.2159 27.2549 37.8155C27.3059 34.769 25.6147 31.7464 22.9407 30.1951C21.6525 29.4378 20.365 28.6792 19.0779 27.92C18.9963 27.8743 18.9133 27.8278 18.8294 27.7808C17.209 26.8726 15.1997 25.7463 13.9628 24.9938C13.9486 24.9851 13.9345 24.9765 13.9204 24.968C12.1964 23.9085 11.2943 22.8194 10.6489 21.9122C7.63915 17.9125 7.89484 11.9318 11.1842 8.26791C12.0864 7.22595 12.9868 6.18257 13.8852 5.13747C15.0871 3.73936 16.2854 2.33791 17.479 0.932819C17.5027 0.904983 17.5263 0.877143 17.5499 0.849304C17.8811 0.455758 18.39 0.220114 18.9045 0.222292C20.277 0.221162 21.6496 0.217679 23.022 0.212075C24.0107 0.186797 24.9507 0.156765 25.8224 0.128943C27.0474 0.0898475 28.1379 0.0551275 29.0386 0.0437975C31.0359 0.0186781 33.2802 0.0531628 35.0502 0.0837667C35.3371 0.0857218 35.6268 0.154618 35.8784 0.279321C36.3993 0.536115 36.7373 0.998702 36.8697 1.4721C37.0031 1.90724 36.9624 2.40698 36.7702 2.81176C36.2654 3.91294 35.7612 5.01455 35.2573 6.11607C35.2072 6.19962 35.1564 6.28367 35.1047 6.36906C34.5122 7.34763 33.9168 8.58982 33.0326 10.4662C32.9596 10.6212 32.8897 10.7805 32.8219 10.9486C32.464 11.8392 32.1762 12.9353 32.1448 14.25C32.1321 15.0956 32.155 15.5342 32.1672 15.8957C32.1721 16.002 32.1785 16.1016 32.1889 16.2022C32.2249 16.547 32.3461 16.8957 32.5169 17.2894C32.7417 17.8009 33.0392 18.387 33.437 19.1647C34.4273 21.0216 35.5399 21.738 36.2795 22.1658C36.5545 22.3197 36.7963 22.4476 37.02 22.566C37.2811 22.7043 37.5178 22.8296 37.7538 22.9676C38.5189 23.4152 39.5502 24.1426 40.3148 24.7152C40.921 25.1692 42.2124 25.9574 43.2052 26.5348C43.5806 26.7531 44.0716 27.0737 44.6499 27.4514C45.0482 27.7116 45.4881 27.999 45.9601 28.2986C46.2184 28.463 46.478 28.6413 46.7372 28.8341C48.6771 30.3296 49.3307 31.5431 49.8453 32.4455C49.9867 32.7104 50.1082 32.9629 50.2207 33.2192C50.5787 34.0275 50.9013 35.0914 51.0369 36.2013C51.0873 36.6023 51.1155 37.0082 51.1222 37.4071C51.1377 38.2349 51.1544 39.0259 51.1747 39.6745C51.144 42.0843 51.106 44.4943 51.0681 46.9038C51.0499 48.0477 50.9539 49.1488 50.7952 50C50.7823 50.1242 50.756 50.2438 50.7188 50.3553C50.457 51.1088 49.8417 51.3511 49.5026 51.355C49.1425 51.3591 48.9978 51.2038 49 51.0868C48.9999 50.9621 49.1342 50.8488 49.2534 50.6834C49.374 50.5234 49.4675 50.2848 49.41 50.0856C49.402 50.0558 49.3914 50.0273 49.3783 50C49.2197 49.1488 49.1235 48.0477 49.1053 46.9038C49.0661 44.4105 49.0269 41.9166 48.9957 39.423C48.9872 38.7511 48.9794 38.0791 48.9723 37.4071C48.9527 35.2822 48.1561 33.1877 46.7749 31.5871C46.2288 30.951 45.5934 30.3921 44.8921 29.9307C43.9012 29.279 42.9111 28.6258 41.9218 27.9714C41.7394 27.8507 41.5569 27.7299 41.3745 27.6092C39.8475 26.6826 38.3263 25.7533 37.2651 25.0825C36.3967 24.5336 35.7854 24.0957 35.2623 23.7204C35.2569 23.7166 35.2516 23.7128 35.2463 23.709C34.842 23.4199 34.5049 23.1426 34.1647 22.8578C33.9828 22.7052 33.7373 22.492 33.4576 22.2159C32.2896 21.1335 30.7226 18.746 30.4117 16.2562C30.2483 15.1683 30.2731 13.8773 30.5146 12.694C30.7405 11.545 31.1573 10.5095 31.5348 9.75923C31.7001 9.42926 31.8365 9.14613 31.9324 8.9275C32.4542 7.73836 33.1169 6.40495 33.7025 5.22678C34.2611 4.10295 34.7495 3.12007 34.9787 2.53809C35.0436 2.37334 35.1093 2.21582 35.1776 2.06015C35.199 1.9912 35.1873 1.88816 35.0871 1.83789C35.077 1.83377 35.0652 1.83024 35.0502 1.82808C34.4321 1.80892 33.6822 1.78767 32.6984 1.77857C31.4356 1.76689 30.5422 1.73243 29.7828 1.70313C28.7141 1.66189 27.91 1.63089 26.7115 1.68793C25.3802 1.7513 23.9887 1.79163 22.8929 1.77161C22.3938 1.76249 21.8228 1.76471 21.2288 1.76704C20.4578 1.77005 19.6476 1.77317 18.9045 1.75187C18.9007 1.75144 18.897 1.75109 18.8933 1.7508C18.8192 1.74508 18.7436 1.76614 18.6816 1.81068C18.4865 2.00913 18.3037 2.18765 18.1326 2.35479C18.0305 2.45444 17.9327 2.55014 17.8387 2.64352C17.5183 3.02173 17.198 3.40012 16.8781 3.77884C16.832 3.84501 16.7839 3.91484 16.7336 3.98768C16.4812 4.35317 16.1708 4.80245 15.7558 5.33267C15.0991 6.17185 14.4738 6.86658 13.814 7.59929C13.3512 8.1132 12.8715 8.6458 12.3524 9.26024C12.2987 9.32374 12.2457 9.38863 12.1933 9.455C11.8325 9.91028 11.4803 10.4724 11.2008 11.0606C10.7786 11.9346 10.5355 12.8571 10.3953 13.5021C10.3414 13.7441 10.28 13.9496 10.2248 14.1571C10.2245 14.158 10.2242 14.1589 10.2239 14.1598C10.2202 14.1739 10.2166 14.188 10.2129 14.2021C10.0493 15.8167 10.3219 17.4695 10.9849 18.9368C11.0472 19.0617 11.113 19.187 11.1805 19.3087C11.5094 19.9063 11.9056 20.4369 12.2032 20.7438C12.5185 21.0804 13.2924 21.9489 14.3119 22.6044C14.5431 22.7559 14.7809 22.8965 15.0253 23.0262C15.5314 23.2967 16.0239 23.5578 16.456 23.7809C16.8436 23.9809 17.1876 24.2123 17.5414 24.4505C17.8715 24.6726 18.2105 24.9008 18.6013 25.1144C18.7971 25.2215 19.0129 25.3295 19.2432 25.4447C19.4459 25.5461 19.6603 25.6533 19.882 25.7704C20.0879 25.8793 20.5303 26.1504 21.0975 26.4979C21.4481 26.7127 21.8465 26.9566 22.2663 27.2097C22.8689 27.5408 23.4714 27.8721 24.0738 28.2036C24.6624 28.5286 25.2215 28.9075 25.7424 29.3353C25.9889 29.5072 26.2044 29.6584 26.3853 29.7704C26.5149 29.8506 26.6324 29.9138 26.7523 29.9811C26.9152 30.0728 27.0837 30.1717 27.2866 30.3387C27.4453 30.469 27.6073 30.6474 27.6939 30.7835C27.7344 30.8469 27.7589 30.9004 27.7809 30.949C27.806 31.0046 27.8281 31.0542 27.8664 31.1065C27.894 31.1442 27.9299 31.1783 27.9737 31.2209C28.0434 31.2888 28.134 31.3781 28.2387 31.537C28.6287 32.1273 29.001 32.8452 29.283 33.58C29.6003 34.3966 29.8038 35.2303 29.9225 35.9009C30.0158 36.4159 30.0748 37.0927 30.053 37.8155C30.0434 38.1044 30.0326 38.4022 30.0217 38.7001C29.9976 39.3619 29.9737 40.0248 29.9639 40.5933C29.9542 41.1506 29.9734 41.7308 29.9921 42.2926C30.0145 42.9671 30.0361 43.6158 30.0058 44.1671C29.9996 44.2786 29.9621 44.417 29.9152 44.5907C29.8819 44.7138 29.8438 44.8555 29.8088 45.0167C29.8088 45.7185 29.8072 46.4203 29.8044 47.1221C29.8095 47.1468 29.8146 47.1723 29.8199 47.1978C29.8201 47.1982 29.8202 47.1986 29.8203 47.199C29.9397 47.7754 30.103 48.5641 30.0056 49.6722C29.9943 49.8004 29.9787 49.9069 29.9612 50C29.9401 49.9631 29.9105 49.9359 29.8816 49.9176C29.8285 49.8839 29.7815 49.8766 29.7485 49.8539C29.7139 49.8307 29.6729 49.7809 29.6047 49.7545C29.6149 49.7536 29.6253 49.7527 29.6356 49.7518C30.0569 49.7138 30.5275 49.6715 30.9998 49.7109C31.032 49.7136 31.0667 49.7166 31.1028 49.7195C31.4451 49.7476 31.9518 49.7891 32.4561 49.8726C33.9521 49.8949 35.4483 49.921 36.9443 49.9495C39.438 49.997 41.9322 50.0512 44.4257 50.1053C45.6388 50.132 46.8022 50.2457 47.6601 50.4278C48.518 50.6101 49 50.8444 49 51.0868C48.9999 51.3291 48.5179 51.5633 47.6601 51.7456C46.8022 51.9277 45.6389 52.0414 44.4257 52.0681C42.4475 52.111 40.4687 52.1541 38.4903 52.1937C38.3866 52.1987 38.2824 52.2036 38.1788 52.2082C37.4075 52.2421 36.692 52.3103 35.9759 52.3786C35.8114 52.3943 35.6466 52.41 35.4814 52.4253Z" fill="black"/>
</svg>
