<svg width="413" height="198" viewBox="0 0 413 198" fill="none" xmlns="http://www.w3.org/2000/svg">
<path d="M33.997 100.002C11.557 125.082 -1.98296 139.322 2.93704 139.342C26.2773 139.437 46.617 130.662 53.947 132.652C56.8604 133.443 57.317 135.962 55.677 141.272C51.2575 155.581 39.397 172.582 26.757 188.222C20.9169 195.448 15.437 200.562 20.637 190.082C39.5093 152.047 62.617 120.062 70.607 110.402C73.8062 106.534 75.957 105.362 76.977 106.002C86.5368 112 70.717 142.522 69.317 154.652C67.2952 172.17 105.277 115.442 111.317 95.7319C112.422 92.1257 111.997 90.042 110.017 89.682C88.2435 85.7231 70.677 119.982 69.997 122.652C69.1875 125.831 93.157 109.462 119.157 94.752C127.079 90.2697 127.997 101.162 127.007 108.222C126.017 115.282 124.037 120.562 123.677 121.962C118.118 143.579 147.317 66.022 149.647 64.672C158.51 59.5367 149.357 89.242 141.357 109.932C139.816 113.917 139.997 115.962 141.317 115.662C159.395 111.553 171.277 76.102 174.987 69.682C176.897 66.3764 164.837 90.322 163.717 94.542C161.811 101.725 179.297 68.7819 184.297 54.0919C187.918 43.4531 183.997 79.9619 187.297 82.3319C212.011 100.081 215.317 39.4019 215.667 32.702C215.718 31.7281 211.397 39.202 200.787 69.002C190.177 98.802 172.357 151.602 163.507 177.152C154.657 202.702 155.317 199.402 163.907 179.882C172.497 160.362 188.997 124.722 202.777 97.782C216.557 70.842 227.117 53.682 236.517 39.892C253.046 15.6435 263.977 4.02195 266.977 2.01195C276.904 -4.63885 256.057 43.8619 249.367 63.542C247.478 69.0978 253.237 66.722 258.257 62.722C281.341 44.3282 286.657 21.382 285.677 15.372C285.331 13.2502 280.077 15.962 266.487 26.222C252.897 36.482 229.797 54.962 190.177 80.652C150.557 106.342 95.117 138.682 64.247 157.322C33.377 175.962 28.757 179.922 31.987 181.302C35.217 182.682 46.437 181.362 75.317 169.132C104.197 156.902 150.397 133.802 184.427 115.302C218.457 96.8019 238.917 83.602 264.307 69.212C289.697 54.822 319.397 39.642 341.627 29.512C363.857 19.382 377.717 14.762 388.487 11.722C399.257 8.68195 406.517 7.36195 411.997 8.00195" stroke="white" stroke-width="2" stroke-linecap="round"/>
</svg>
